<svg id="Layer_3" height="512" viewBox="0 0 64 64" width="512" xmlns="http://www.w3.org/2000/svg" data-name="Layer 3"><path d="m62.885 49.557h.008l-5.893-11.795v-11.762a3 3 0 0 0 -3-3h-4v-6h3a1 1 0 0 0 1-1v-8a3 3 0 0 0 -3-3h-12a3 3 0 0 0 -3 3v15h-13v-4h3a1 1 0 0 0 1-1v-3h3a1 1 0 0 0 1-1v-12a1 1 0 0 0 -1-1h-22a1 1 0 0 0 -1 1v12a1 1 0 0 0 1 1h3v3a1 1 0 0 0 1 1h3v4h-5a3 3 0 0 0 -3 3v11.762l-5.895 11.791h.01a.978.978 0 0 0 -.115.447v12a1 1 0 0 0 1 1h60a1 1 0 0 0 1-1v-12a.975.975 0 0 0 -.115-.443zm-12.885-41.557a1 1 0 0 1 2 0v7h-2zm5.618 41-3.718-7.447a1 1 0 0 0 -.9-.553h-38a1 1 0 0 0 -.895.553l-3.723 7.447h-4.764l5-10h46.764l5 10zm-2.236 0h-42.764l3-6h36.764zm-15.382-41a1 1 0 0 1 1-1h9.171a3.009 3.009 0 0 0 -.171 1v21h-10zm-29-5h20v10h-20zm4 12h12v2h-12zm4 4h4v4h-4zm-7 6h26v5a1 1 0 0 0 1 1h12a1 1 0 0 0 1-1v-5h4a1 1 0 0 1 1 1v11h-46v-11a1 1 0 0 1 1-1zm51 36h-58v-10h58z"/><path d="m26 5h-14a1 1 0 0 0 -1 1v4a1 1 0 0 0 1 1h14a1 1 0 0 0 1-1v-4a1 1 0 0 0 -1-1zm-1 4h-12v-2h12z"/><circle cx="32" cy="55" r="2"/><path d="m14 34h14a1 1 0 0 0 1-1v-5a1 1 0 0 0 -1-1h-14a1 1 0 0 0 -1 1v5a1 1 0 0 0 1 1zm1-5h12v3h-12z"/><path d="m34 34h18a1 1 0 0 0 1-1v-5h-2v4h-16v-4h-2v5a1 1 0 0 0 1 1z"/><path d="m40 9h6v2h-6z"/><path d="m40 13h6v2h-6z"/><path d="m40 17h6v2h-6z"/></svg>