<svg id="Capa_1" enable-background="new 0 0 510.435 510.435" height="512" viewBox="0 0 510.435 510.435" width="512" xmlns="http://www.w3.org/2000/svg"><g><path d="m304.083 261.651c-3.938 0-7.131 3.193-7.131 7.131s3.193 7.131 7.131 7.131c3.939 0 7.131-3.193 7.131-7.131s-3.192-7.131-7.131-7.131z"/><path d="m342.283 261.651c-3.939 0-7.131 3.193-7.131 7.131s3.193 7.131 7.131 7.131 7.131-3.193 7.131-7.131-3.192-7.131-7.131-7.131z"/><path d="m380.004 261.651c-3.939 0-7.131 3.193-7.131 7.131s3.193 7.131 7.131 7.131 7.131-3.193 7.131-7.131-3.193-7.131-7.131-7.131z"/><path d="m359.507 409.899h-210.155c-4.136 0-7.5-3.364-7.5-7.5v-11.69c7.649-4.375 12.819-12.611 12.819-22.037v-8.31h62.671c6.13 0 11.679-3.602 14.178-9.189l13.111-27.54h196.345c12.406 0 22.5-10.093 22.5-22.5v-216.888c0-12.407-10.094-22.5-22.5-22.5h-299.124v-19.324c0-4.135 3.364-7.5 7.5-7.5h68.089c4.143 0 7.5-3.358 7.5-7.5s-3.357-7.5-7.5-7.5h-68.089c-12.406 0-22.5 10.094-22.5 22.5v187.465h-86.526c-22.236 0-40.326 18.09-40.326 40.326v49.824c0 21.969 17.661 39.879 39.529 40.306l-33.937 101.035c-2.293 6.825-1.197 14.092 3.006 19.939 4.204 5.846 10.744 9.199 17.944 9.199h78.137c9.854 0 17.871-8.017 17.871-17.871v-16.672c0-9.854-8.017-17.871-17.871-17.871h-7.917c-1.28 0-2.011-.749-2.331-1.195-.321-.446-.799-1.376-.391-2.59l13.526-40.268h19.287v8.353c0 12.407 10.094 22.5 22.5 22.5h210.154c4.143 0 7.5-3.358 7.5-7.5 0-4.144-3.358-7.502-7.5-7.502zm-217.655-333.154h299.124c4.136 0 7.5 3.364 7.5 7.5v216.888c0 4.136-3.364 7.5-7.5 7.5h-189.204l27.031-56.78c.035-.074.069-.148.103-.224 2.103-4.818 1.639-10.321-1.24-14.72-2.88-4.398-7.737-7.024-12.994-7.024h-.009v-57.66c0-4.142-3.357-7.5-7.5-7.5s-7.5 3.358-7.5 7.5v57.66h-13.721v-57.66c0-4.142-3.357-7.5-7.5-7.5s-7.5 3.358-7.5 7.5v57.66h-21.394v-57.66c0-4.142-3.357-7.5-7.5-7.5s-7.5 3.358-7.5 7.5v57.66h-42.695v-153.14zm-126.852 243.291v-49.824c0-13.965 11.361-25.327 25.326-25.327h29.788l-12.646 26.563c-1.781 3.74-.192 8.215 3.548 9.996 1.04.495 2.138.73 3.219.73 2.803 0 5.491-1.579 6.776-4.278l14.824-31.139c.29-.609.482-1.238.598-1.871h11.325l-12.646 26.563c-1.781 3.74-.192 8.215 3.548 9.996 1.04.495 2.138.73 3.219.73 2.803 0 5.491-1.579 6.776-4.278l14.824-31.139c.29-.609.482-1.238.598-1.871h11.324l-12.646 26.563c-1.781 3.74-.192 8.215 3.548 9.996 1.04.495 2.138.73 3.219.73 2.803 0 5.491-1.579 6.776-4.278l14.824-31.139c.29-.609.482-1.238.598-1.871h11.324l-12.644 26.56c-1.781 3.74-.192 8.215 3.548 9.996 1.04.496 2.138.73 3.219.73 2.803 0 5.491-1.579 6.776-4.278l14.825-31.139c.29-.609.482-1.238.599-1.872h95.304c.101 0 .287 0 .444.24.126.193.103.342.067.44l-47.25 99.253c-.035.074-.069.149-.103.224-.085.194-.276.319-.487.319h-177.016c-13.965.002-25.326-11.36-25.326-25.325zm64.821 109.502c-1.827 5.438-.919 11.466 2.431 16.124 3.349 4.658 8.772 7.439 14.51 7.439h7.917c1.583 0 2.871 1.288 2.871 2.871v16.672c0 1.583-1.288 2.871-2.871 2.871h-78.137c-2.313 0-4.415-1.077-5.766-2.956-1.35-1.878-1.702-4.213-.966-6.405l35.535-105.791h47.711zm39.059-69.175h20.792v8.31c0 5.721-4.653 10.374-10.374 10.374h-16.694z"/><path d="m487.935 19.921h-240.494c-4.143 0-7.5 3.358-7.5 7.5s3.357 7.5 7.5 7.5h240.494c4.136 0 7.5 3.365 7.5 7.5v359.979c0 4.136-3.364 7.5-7.5 7.5h-98.429c-4.143 0-7.5 3.358-7.5 7.5s3.357 7.5 7.5 7.5h98.429c12.406 0 22.5-10.093 22.5-22.5v-359.979c0-12.407-10.093-22.5-22.5-22.5z"/><path d="m305.512 164.726c-4.143 0-7.5 3.358-7.5 7.5v72.532c0 4.142 3.357 7.5 7.5 7.5s7.5-3.358 7.5-7.5v-72.532c0-4.142-3.358-7.5-7.5-7.5z"/><path d="m334.783 244.758c0 4.142 3.357 7.5 7.5 7.5s7.5-3.358 7.5-7.5v-72.532c0-4.142-3.357-7.5-7.5-7.5s-7.5 3.358-7.5 7.5z"/><path d="m380.004 252.258c4.143 0 7.5-3.358 7.5-7.5v-72.532c0-4.142-3.357-7.5-7.5-7.5s-7.5 3.358-7.5 7.5v72.532c0 4.142 3.357 7.5 7.5 7.5z"/><path d="m414.304 276.283c4.143 0 7.5-3.358 7.5-7.5v-96.557c0-4.142-3.357-7.5-7.5-7.5s-7.5 3.358-7.5 7.5v96.557c0 4.142 3.357 7.5 7.5 7.5z"/><path d="m181.641 113.509h35.801c4.143 0 7.5-3.358 7.5-7.5s-3.357-7.5-7.5-7.5h-35.801c-4.143 0-7.5 3.358-7.5 7.5s3.357 7.5 7.5 7.5z"/><path d="m329.36 141.863c4.143 0 7.5-3.358 7.5-7.5s-3.357-7.5-7.5-7.5h-147.72c-4.143 0-7.5 3.358-7.5 7.5s3.357 7.5 7.5 7.5z"/></g></svg>