<svg id="Capa_1" enable-background="new 0 0 512 512" height="512" viewBox="0 0 512 512" width="512" xmlns="http://www.w3.org/2000/svg" xmlns:xlink="http://www.w3.org/1999/xlink"><linearGradient id="SVGID_1_" gradientUnits="userSpaceOnUse" x1="74.981" x2="437.019" y1="437.019" y2="74.981"><stop offset="0" stop-color="#0072ff"/><stop offset="1" stop-color="#00deb0"/></linearGradient><radialGradient id="SVGID_2_" cx="256" cy="256" gradientUnits="userSpaceOnUse" r="256"><stop offset=".162" stop-color="#0072ff"/><stop offset=".3013" stop-color="#007df7" stop-opacity=".834"/><stop offset=".5429" stop-color="#0099e3" stop-opacity=".546"/><stop offset=".856" stop-color="#00c7c1" stop-opacity=".172"/><stop offset="1" stop-color="#00deb0" stop-opacity="0"/></radialGradient><radialGradient id="SVGID_3_" cx="256" cy="255.5" fx="246.415" fy="255.736" gradientUnits="userSpaceOnUse" r="130.807"><stop offset="0" stop-color="#00deb0" stop-opacity="0"/><stop offset=".0938" stop-color="#00c7c1" stop-opacity=".171"/><stop offset=".2987" stop-color="#0099e3" stop-opacity=".545"/><stop offset=".4569" stop-color="#007df7" stop-opacity=".834"/><stop offset=".548" stop-color="#0072ff"/></radialGradient><linearGradient id="SVGID_4_" gradientUnits="userSpaceOnUse" x1="-86.394" x2="487.789" y1="598.394" y2="24.211"><stop offset="0" stop-color="#00babd"/><stop offset=".1502" stop-color="#3acacc"/><stop offset=".3204" stop-color="#75dadb"/><stop offset=".4849" stop-color="#a7e7e8"/><stop offset=".6392" stop-color="#cdf1f2"/><stop offset=".781" stop-color="#e8f9f9"/><stop offset=".9056" stop-color="#f9fdfd"/><stop offset="1" stop-color="#fff"/></linearGradient><linearGradient id="SVGID_5_" gradientUnits="userSpaceOnUse" x1="-26.35" x2="535.695" y1="538.35" y2="-23.695"><stop offset="0" stop-color="#00babd"/><stop offset=".0654" stop-color="#2cc6c8"/><stop offset=".1495" stop-color="#5dd3d5"/><stop offset=".2381" stop-color="#88dfe0"/><stop offset=".3297" stop-color="#ade9ea"/><stop offset=".425" stop-color="#cbf1f1"/><stop offset=".5253" stop-color="#e2f7f7"/><stop offset=".6326" stop-color="#f2fcfc"/><stop offset=".7522" stop-color="#fcfefe"/><stop offset=".9085" stop-color="#fff"/></linearGradient><linearGradient id="SVGID_6_" gradientUnits="userSpaceOnUse" x1="143.106" x2="442.449" y1="368.894" y2="69.552"><stop offset="0" stop-color="#00babd"/><stop offset=".1591" stop-color="#37c9cb"/><stop offset=".429" stop-color="#8ee0e2"/><stop offset=".6193" stop-color="#c6eff0"/><stop offset=".711" stop-color="#dbf5f6"/></linearGradient><linearGradient id="SVGID_7_" gradientUnits="userSpaceOnUse" x1="89.359" x2="314.485" y1="422.641" y2="197.516"><stop offset="0" stop-color="#00babd"/><stop offset=".1231" stop-color="#3acacc"/><stop offset=".2627" stop-color="#75dadb"/><stop offset=".3976" stop-color="#a7e7e8"/><stop offset=".5241" stop-color="#cdf1f2"/><stop offset=".6403" stop-color="#e8f9f9"/><stop offset=".7425" stop-color="#f9fdfd"/><stop offset=".8198" stop-color="#fff"/></linearGradient><linearGradient id="SVGID_8_" gradientUnits="userSpaceOnUse" x1="137.313" x2="304.62" y1="375.291" y2="207.984"><stop offset=".026" stop-color="#00babd"/><stop offset=".1723" stop-color="#3acacc"/><stop offset=".3381" stop-color="#75dadb"/><stop offset=".4983" stop-color="#a7e7e8"/><stop offset=".6486" stop-color="#cdf1f2"/><stop offset=".7867" stop-color="#e8f9f9"/><stop offset=".9081" stop-color="#f9fdfd"/><stop offset="1" stop-color="#fff"/></linearGradient><title>הגדרות</title><g><circle cx="256" cy="256" fill="url(#SVGID_1_)" r="256"/><path d="m256 0c-141.385 0-256 114.615-256 256s114.615 256 256 256 256-114.615 256-256-114.615-256-256-256zm0 317c-33.689 0-61-27.311-61-61s27.311-61 61-61 61 27.311 61 61-27.311 61-61 61z" fill="url(#SVGID_2_)"/><circle cx="256" cy="256" fill="url(#SVGID_3_)" r="61"/><path d="m450.48 231.468c-.763-6.11-5.278-11.089-11.255-12.573l-39.68-9.851c-2.413-7.38-5.372-14.511-8.842-21.341l21.094-35.026c3.177-5.275 2.849-11.988-.932-16.849-4.973-6.392-10.397-12.547-16.271-18.422-5.875-5.875-12.03-11.299-18.422-16.271-4.86-3.781-11.573-4.109-16.849-.932l-35.026 21.094c-6.83-3.47-13.961-6.43-21.341-8.842l-9.851-39.68c-1.484-5.976-6.462-10.492-12.573-11.255-8.037-1.003-16.224-1.52-24.532-1.52s-16.495.517-24.532 1.52c-6.11.763-11.089 5.278-12.573 11.255l-9.851 39.68c-7.38 2.413-14.511 5.372-21.341 8.842l-35.026-21.094c-5.275-3.177-11.988-2.849-16.849.932-6.392 4.973-12.547 10.397-18.422 16.271-5.875 5.875-11.299 12.03-16.271 18.422-3.781 4.86-4.109 11.573-.932 16.849l21.094 35.026c-3.47 6.83-6.43 13.961-8.842 21.341l-39.68 9.851c-5.976 1.484-10.492 6.462-11.255 12.573-1.003 8.037-1.52 16.224-1.52 24.532s.517 16.495 1.52 24.532c.763 6.11 5.278 11.089 11.255 12.573l39.68 9.851c2.413 7.38 5.372 14.511 8.842 21.341l-21.094 35.026c-3.177 5.275-2.849 11.988.932 16.849 4.973 6.392 10.397 12.547 16.271 18.422 5.875 5.875 12.03 11.299 18.422 16.271 4.86 3.781 11.573 4.109 16.849.932l35.026-21.094c6.83 3.47 13.961 6.43 21.341 8.842l9.851 39.68c1.484 5.976 6.462 10.492 12.573 11.255 8.036 1.003 16.224 1.52 24.532 1.52s16.495-.517 24.532-1.52c6.11-.763 11.089-5.278 12.573-11.255l9.851-39.68c7.38-2.413 14.511-5.372 21.341-8.842l35.026 21.094c5.275 3.177 11.988 2.849 16.849-.932 6.392-4.973 12.547-10.397 18.422-16.271 5.875-5.875 11.299-12.03 16.271-18.422 3.781-4.86 4.109-11.573.932-16.849l-21.094-35.026c3.47-6.83 6.43-13.961 8.842-21.341l39.68-9.851c5.976-1.484 10.492-6.462 11.255-12.573 1.003-8.036 1.52-16.224 1.52-24.532s-.517-16.495-1.52-24.532zm-194.48 85.532c-33.689 0-61-27.311-61-61s27.311-61 61-61 61 27.311 61 61-27.311 61-61 61z" fill="url(#SVGID_4_)"/><path d="m256 105c-83.395 0-151 67.605-151 151s67.605 151 151 151 151-67.605 151-151-67.605-151-151-151zm0 212c-33.689 0-61-27.311-61-61s27.311-61 61-61 61 27.311 61 61-27.311 61-61 61z" fill="url(#SVGID_5_)"/><path d="m256 135c-66.826 0-121 54.174-121 121s54.174 121 121 121 121-54.174 121-121-54.174-121-121-121zm0 182c-33.689 0-61-27.311-61-61s27.311-61 61-61 61 27.311 61 61-27.311 61-61 61z" fill="url(#SVGID_6_)"/><path d="m256 165c-50.258 0-91 40.742-91 91s40.742 91 91 91 91-40.742 91-91-40.742-91-91-91zm0 128.5c-20.711 0-37.5-16.789-37.5-37.5s16.789-37.5 37.5-37.5 37.5 16.789 37.5 37.5-16.789 37.5-37.5 37.5z" fill="url(#SVGID_7_)"/><path d="m271 317c-50.258 0-91-40.742-91-91 0-8.651 1.208-17.02 3.463-24.948-11.585 15.269-18.463 34.304-18.463 54.948 0 50.258 40.742 91 91 91 41.607 0 76.691-27.923 87.537-66.052-16.617 21.903-42.923 36.052-72.537 36.052z" fill="url(#SVGID_8_)"/></g></svg>