<svg id="Layer_1" enable-background="new 0 0 512.045 512.045" height="512" viewBox="0 0 512.045 512.045" width="512" xmlns="http://www.w3.org/2000/svg"><g><path d="m208.63 0h86.127v95.311h-86.127z"/><path d="m327.606 95.038h177.752v-80.986c0-7.761-6.283-14.052-14.032-14.052h-163.72z"/><path d="m208.63 128.209h86.127v51.052h-86.127z"/><path d="m418.134 324.339c-51.675 0-93.716 42.103-93.716 93.854s42.041 93.853 93.716 93.853 93.715-42.102 93.715-93.853-42.04-93.854-93.715-93.854zm51.461 122.128c14.567 15.842-7.144 37.804-23.228 23.262l-28.234-28.275-28.234 28.275c-16.577 15.039-37.431-8.24-23.228-23.262l28.234-28.275-28.234-28.275c-6.415-6.423-6.415-16.839 0-23.262 6.414-6.423 16.814-6.423 23.228 0l28.234 28.275 28.234-28.275c6.414-6.423 16.814-6.423 23.228 0 6.415 6.423 6.415 16.839 0 23.262l-28.234 28.275z"/><path d="m291.568 418.193c0-69.89 56.778-126.751 126.566-126.751 33.777 0 64.505 13.32 87.224 34.99v-198.223h-177.752v67.501c0 9.084-7.354 16.449-16.425 16.449h-118.976c-9.071 0-16.425-7.365-16.425-16.449v-67.501h-175.584v340.071c0 7.761 6.282 14.052 14.032 14.052h294.782c-11.076-18.827-17.442-40.751-17.442-64.139zm-128.812-166.407h1.191c9.071 0 16.425 7.365 16.425 16.449s-7.354 16.449-16.425 16.449h-1.191c-9.071 0-16.425-7.365-16.425-16.449s7.354-16.449 16.425-16.449zm-48.85 0h1.191c9.071 0 16.425 7.365 16.425 16.449s-7.354 16.449-16.425 16.449h-1.191c-9.071 0-16.425-7.365-16.425-16.449s7.354-16.449 16.425-16.449zm-48.206 0h.547c9.071 0 16.425 7.365 16.425 16.449s-7.354 16.449-16.425 16.449h-.547c-9.071 0-16.425-7.365-16.425-16.449s7.354-16.449 16.425-16.449zm162.579 164.19c0 9.084-7.354 16.449-16.425 16.449h-146.154c-9.071 0-16.425-7.365-16.425-16.449v-83.406c0-9.084 7.354-16.449 16.425-16.449h146.154c9.071 0 16.425 7.365 16.425 16.449zm-16.125-131.292h-.547c-9.071 0-16.425-7.365-16.425-16.449s7.354-16.449 16.425-16.449h.547c9.071 0 16.425 7.365 16.425 16.449s-7.354 16.449-16.425 16.449z"/><path d="m175.781 95.038v-95.038h-161.553c-7.749 0-14.032 6.291-14.032 14.052v80.986z"/><path d="m82.125 349.019h113.304v50.508h-113.304z"/></g></svg>