<?xml version="1.0"?>
<svg xmlns="http://www.w3.org/2000/svg" width="512" height="512" viewBox="0 0 128 128"><g><path d="M25.569,27.011a1.756,1.756,0,0,0,1.909-1.575,2.389,2.389,0,0,1,2.388-2.171H45.134a2.389,2.389,0,0,1,2.388,2.171,1.751,1.751,0,0,0,1.74,1.583,1.606,1.606,0,0,0,.169-.008A1.75,1.75,0,0,0,51.006,25.1a5.876,5.876,0,0,0-5.872-5.338H29.866A5.876,5.876,0,0,0,23.994,25.1,1.75,1.75,0,0,0,25.569,27.011Z"/><path d="M44.167,30.027H30.833a1.75,1.75,0,0,0,0,3.5H44.167a1.75,1.75,0,0,0,0-3.5Z"/><path d="M78.569,27.011a1.753,1.753,0,0,0,1.909-1.575,2.389,2.389,0,0,1,2.388-2.171H98.134a2.389,2.389,0,0,1,2.388,2.171,1.751,1.751,0,0,0,1.74,1.583,1.606,1.606,0,0,0,.169-.008,1.75,1.75,0,0,0,1.575-1.908,5.876,5.876,0,0,0-5.872-5.338H82.866A5.876,5.876,0,0,0,76.994,25.1,1.75,1.75,0,0,0,78.569,27.011Z"/><path d="M97.167,30.027H83.833a1.75,1.75,0,0,0,0,3.5H97.167a1.75,1.75,0,0,0,0-3.5Z"/><path d="M128,61.777a5.089,5.089,0,0,0-5.083-5.084H117.07l-3.11-32.542A15.835,15.835,0,0,0,98.134,9.765H82.866A15.835,15.835,0,0,0,67.04,24.151L64,55.962,60.96,24.151A15.835,15.835,0,0,0,45.134,9.765H29.866A15.835,15.835,0,0,0,14.04,24.151L10.93,56.693H5.083a5.072,5.072,0,0,0-.708,10.095V88.214a7.4,7.4,0,0,0,7.4,7.4h.479v12.25h-4a1.751,1.751,0,0,0-1.75,1.75v6.875a1.751,1.751,0,0,0,1.75,1.75h21a1.751,1.751,0,0,0,1.75-1.75V109.61a1.751,1.751,0,0,0-1.75-1.75h-4V95.61H57.5v12.25h-4a1.751,1.751,0,0,0-1.75,1.75v6.875a1.751,1.751,0,0,0,1.75,1.75h21a1.751,1.751,0,0,0,1.75-1.75V109.61a1.751,1.751,0,0,0-1.75-1.75h-4V95.61h32.25v12.25h-4A1.751,1.751,0,0,0,97,109.61v6.875a1.751,1.751,0,0,0,1.75,1.75h21a1.751,1.751,0,0,0,1.75-1.75V109.61a1.751,1.751,0,0,0-1.75-1.75h-4V95.61h.479a7.4,7.4,0,0,0,7.4-7.4V66.788A5.074,5.074,0,0,0,128,61.777ZM82.866,13.265H98.134a12.349,12.349,0,0,1,12.342,11.219l3.078,32.209h-4.971a5.072,5.072,0,0,0-.708,10.095V72.61h-36V66.788a5.072,5.072,0,0,0-.708-10.095H67.446l3.078-32.209A12.349,12.349,0,0,1,82.866,13.265ZM120.125,72.61h-8.75V66.86h8.75ZM71.167,60.193a1.584,1.584,0,0,1,0,3.167H56.833a1.584,1.584,0,0,1,0-3.167ZM59.625,66.86h8.75v5.75h-8.75Zm-42.1-42.376A12.349,12.349,0,0,1,29.866,13.265H45.134A12.349,12.349,0,0,1,57.476,24.484l3.078,32.209H56.833a5.072,5.072,0,0,0-.708,10.095V72.61h-36V66.788a5.072,5.072,0,0,0-.708-10.095H14.446ZM7.875,66.86h8.75v5.75H7.875ZM3.5,61.777a1.585,1.585,0,0,1,1.583-1.584H19.417a1.584,1.584,0,0,1,0,3.167H5.083A1.585,1.585,0,0,1,3.5,61.777Zm24,52.958H10V111.36H27.5Zm-5.75-6.875h-6V95.61h6Zm51,6.875H55.25V111.36h17.5ZM67,107.86H61V95.61h6Zm51,6.875H100.5V111.36H118Zm-5.75-6.875h-6V95.61h6Zm7.875-19.646a3.9,3.9,0,0,1-3.9,3.9H11.771a3.9,3.9,0,0,1-3.9-3.9V76.11h112.25Zm2.792-24.854H108.583a1.584,1.584,0,0,1,0-3.167h14.334a1.584,1.584,0,0,1,0,3.167Z"/></g></svg>
