<?xml version="1.0" standalone="no"?>
<!DOCTYPE svg PUBLIC "-//W3C//DTD SVG 20010904//EN"
 "http://www.w3.org/TR/2001/REC-SVG-20010904/DTD/svg10.dtd">
<svg version="1.0" xmlns="http://www.w3.org/2000/svg"
 width="300.000000pt" height="269.000000pt" viewBox="0 0 300.000000 269.000000"
 preserveAspectRatio="xMidYMid meet">
<metadata>
Created by potrace 1.16, written by Peter Selinger 2001-2019
</metadata>
<g transform="translate(0.000000,269.000000) scale(0.100000,-0.100000)"
fill="#000000" stroke="none">
<path d="M1545 2684 c-499 -74 -899 -353 -1065 -742 -45 -107 -67 -216 -85
-422 -24 -268 -50 -365 -111 -404 -14 -10 -58 -22 -98 -28 -39 -5 -86 -16
-103 -25 -70 -33 -98 -136 -58 -213 10 -19 63 -81 119 -136 117 -117 241 -203
385 -264 l96 -41 0 -92 c0 -107 18 -155 85 -224 65 -66 119 -88 220 -88 67 0
94 5 130 23 87 43 145 112 170 205 l17 62 47 0 c25 -1 126 -2 225 -3 l179 -2
7 -37 c13 -70 37 -113 94 -166 90 -83 196 -107 311 -70 66 21 143 89 177 157
29 58 41 152 25 208 l-10 37 61 35 c242 135 439 347 537 574 163 378 114 803
-131 1132 -70 94 -215 232 -309 295 -227 151 -458 223 -735 230 -82 2 -163 1
-180 -1z m341 -169 c380 -66 689 -287 851 -608 68 -136 95 -253 96 -412 1
-133 -8 -200 -45 -315 -76 -237 -267 -459 -507 -589 l-75 -40 -27 20 c-129 91
-332 52 -425 -83 l-28 -40 -258 4 -258 4 -17 25 c-56 80 -147 132 -245 137
-74 5 -124 -8 -182 -45 -29 -19 -46 -23 -70 -19 -56 11 -251 114 -335 176 -73
55 -191 174 -191 193 0 4 18 7 40 7 53 0 144 35 187 73 97 85 128 189 158 522
18 204 33 272 90 390 144 301 470 532 844 599 104 19 290 19 397 1z m-887
-2134 c25 -23 31 -37 31 -69 0 -94 -111 -135 -176 -65 -57 61 -9 163 76 163
28 0 46 -8 69 -29z m1067 11 c88 -70 30 -198 -80 -178 -113 21 -94 196 21 196
21 0 48 -8 59 -18z"/>
<path d="M1260 1878 c-97 -65 -90 -207 13 -257 53 -26 80 -26 133 -2 98 45
114 172 30 250 -39 37 -128 41 -176 9z"/>
<path d="M1962 1880 c-21 -13 -41 -38 -53 -66 -67 -150 122 -285 237 -170 56
56 63 132 19 199 -36 56 -141 75 -203 37z"/>
<path d="M1198 1415 c-98 -54 12 -280 187 -384 93 -56 157 -74 281 -79 130 -5
201 10 310 63 129 63 242 199 260 314 5 34 3 43 -19 65 -52 51 -115 27 -142
-54 -9 -28 -36 -71 -61 -99 -201 -223 -615 -159 -695 107 -20 68 -69 95 -121
67z"/>
</g>
</svg>
